<svg width="33" height="32" viewBox="0 0 33 32" fill="none" xmlns="http://www.w3.org/2000/svg">
<g clip-path="url(#clip0_1367_796)">
<path fill-rule="evenodd" clip-rule="evenodd" d="M7.78711 0H24.7871C28.9292 0 32.2871 3.35786 32.2871 7.5V24.5C32.2871 28.6421 28.9292 32 24.7871 32H7.78711C3.64497 32 0.287109 28.6421 0.287109 24.5V7.5C0.287109 3.35786 3.64497 0 7.78711 0ZM27.6577 22.8664C28.0214 23.0047 28.4232 23.005 28.7871 22.8672C28.3253 22.2502 27.8671 21.6373 27.4113 21.0276C26.1931 19.3982 24.9918 17.7913 23.783 16.1881C23.7101 16.1229 23.6519 16.0431 23.612 15.9539C23.5721 15.8646 23.5514 15.768 23.5514 15.6702C23.5514 15.5725 23.5721 15.4759 23.612 15.3866C23.6519 15.2974 23.7101 15.2176 23.783 15.1524C24.5024 14.2615 25.1909 13.3485 25.8802 12.4345C26.0566 12.2006 26.2331 11.9666 26.4101 11.7329L28.3492 9.1613C28.0076 9.02846 27.629 9.02586 27.2855 9.15401C26.9421 9.28217 26.6577 9.53212 26.4866 9.8563C25.6076 11.1003 24.6831 12.3138 23.7409 13.5503C23.4092 13.9858 23.0752 14.4241 22.7404 14.8676C22.3484 14.3414 21.9558 13.8244 21.5664 13.3115C20.6852 12.151 19.82 11.0116 19.0151 9.83543C18.8154 9.50925 18.5093 9.26198 18.1484 9.13536C17.7875 9.00874 17.394 9.01053 17.0342 9.14043L22.0315 15.6529L16.659 22.8603C17.0079 22.986 17.3906 22.9806 17.7359 22.8451C18.0811 22.7095 18.3653 22.4531 18.5355 22.1236C19.5219 20.6806 20.5796 19.2774 21.6547 17.851C22.0038 17.3879 22.3547 16.9223 22.7056 16.4522L23.227 17.1472C23.5858 17.6409 23.949 18.1315 24.3121 18.6219C25.1656 19.7748 26.0185 20.9268 26.8132 22.1166C26.9936 22.4613 27.294 22.7281 27.6577 22.8664ZM3.92998 14.7981C3.88439 15.0575 3.83931 15.314 3.78711 15.5626C3.78718 15.9657 3.78951 16.3688 3.79411 16.7719C3.8085 16.8377 3.82655 16.9048 3.84483 16.9727C3.88832 17.1342 3.93311 17.3006 3.93311 17.4669C4.04931 18.9567 4.64977 20.3676 5.64286 21.4842C6.64666 22.4283 7.92331 23.0308 9.29022 23.2056C10.6571 23.3804 12.0443 23.1184 13.2534 22.4572C13.9851 22.0187 14.608 21.42 15.0751 20.7062C15.5421 19.9923 15.8413 19.1818 15.95 18.3357C15.2897 18.1342 14.9422 18.2523 14.7267 18.9473C14.5623 19.6307 14.2304 20.2624 13.7608 20.7854C13.2912 21.3083 12.6988 21.7062 12.037 21.9429C7.95723 23.3052 4.76711 20.6363 4.94786 16.2159H16.0682C16.1655 13.7417 15.672 11.5454 13.6981 9.99543C10.3272 7.3473 5.42736 9.12668 4.22498 13.4011C4.09545 13.8565 4.01189 14.332 3.92998 14.7981ZM15.0187 15.2637H4.96173L4.95473 15.2498C5.08686 11.9484 7.23448 9.72443 10.237 9.76618C12.9336 9.78693 14.9561 12.0597 15.0187 15.2637Z" fill="#69778C"/>
</g>
<defs>
<clipPath id="clip0_1367_796">
<rect width="32" height="32" fill="white" transform="translate(0.287109)"/>
</clipPath>
</defs>
</svg>
