<svg width="33" height="32" viewBox="0 0 33 32" fill="none" xmlns="http://www.w3.org/2000/svg">
<g clip-path="url(#clip0_1367_802)">
<path d="M31.2804 8.65329L32.2871 6.04395L32.2458 5.88262L22.2818 8.50529C23.3444 6.96795 22.9791 5.73462 22.9791 5.73462C22.9791 5.73462 19.7964 7.76662 17.3884 7.71462C14.9831 7.66129 14.2058 7.02129 10.5151 8.19729C6.82444 9.37329 5.78044 12.984 4.71378 13.7613C3.64178 14.5386 0.287109 17.064 0.287109 17.064L0.295109 17.1093L3.32178 16.144C3.32178 16.144 2.49244 16.924 0.728443 19.304L0.645776 19.228L0.648443 19.2426C0.648443 19.2426 2.06711 21.4106 3.45778 21.008C3.6202 20.9568 3.77772 20.8912 3.92844 20.812C4.48711 21.124 5.21778 21.4293 6.02444 21.512C6.02444 21.512 5.47778 20.8786 5.02178 20.156L5.33911 19.9506L6.49244 20.3746L6.36444 19.292C6.36844 19.288 6.37244 19.288 6.37511 19.284L7.50711 19.6986L7.36711 18.7146C7.50796 18.6399 7.65114 18.5696 7.79644 18.504L8.97644 14.044L13.8591 10.7146L13.4711 11.692C12.4831 14.1266 10.6244 14.7 10.6244 14.7L9.84844 14.9933C9.27111 15.676 9.02978 15.8426 8.82978 18.1306C9.29378 18.0133 9.73911 17.988 10.1418 18.0933C12.2271 18.6546 12.9511 21.1693 12.3884 21.8626C12.2498 22.036 11.9138 22.3346 11.4911 22.6853H10.6471L10.6364 23.3706L10.5498 23.4386H9.68978L9.67778 24.1106L9.45111 24.28C8.64178 24.2946 7.62044 23.5893 7.62044 23.5893C7.62044 24.2306 8.15511 25.2226 8.15511 25.2226L8.24844 25.1773L8.16711 25.2373C8.16711 25.2373 10.3338 26.6813 11.6951 26.1453C12.9084 25.6706 16.0458 23.1946 18.7564 22.0213L26.9564 19.8613L28.0378 17.0613L21.7871 18.708V16.1893L29.1204 14.2586L30.2018 11.4586L21.7884 13.6746V11.156L31.2804 8.65329ZM16.3964 13.9866L18.3418 13.4746L18.3684 13.5733L17.7618 15.1453L15.7444 15.676L16.3964 13.9866ZM17.0671 17.3546L15.0511 17.8853L15.7031 16.1973L17.6484 15.684L17.6751 15.7826L17.0671 17.3546ZM19.6951 16.7893L17.6778 17.32L18.3311 15.632L20.2764 15.1186L20.3031 15.216L19.6951 16.7893Z" fill="#69778C"/>
</g>
<defs>
<clipPath id="clip0_1367_802">
<rect width="32" height="32" fill="white" transform="translate(0.287109)"/>
</clipPath>
</defs>
</svg>
