<svg width="1207" height="288" viewBox="0 0 1207 288" fill="none" xmlns="http://www.w3.org/2000/svg">
<path d="M255 220V80.4H281.2V198.4H343V220H255Z" fill="#EEEEEE"/>
<path d="M418.922 220C412.655 220 407.789 218.467 404.322 215.4C400.989 212.2 398.989 207.8 398.322 202.2H397.322C395.455 208.6 391.789 213.6 386.322 217.2C380.855 220.667 374.122 222.4 366.122 222.4C355.722 222.4 347.455 219.667 341.322 214.2C335.189 208.733 332.122 201.133 332.122 191.4C332.122 170.6 347.389 160.2 377.922 160.2H396.122V153.4C396.122 146.867 394.522 141.933 391.322 138.6C388.122 135.267 382.922 133.6 375.722 133.6C369.189 133.6 363.922 134.867 359.922 137.4C355.922 139.933 352.522 143.2 349.722 147.2L335.122 134.8C338.322 129.067 343.455 124.267 350.522 120.4C357.722 116.4 366.989 114.4 378.322 114.4C391.922 114.4 402.522 117.6 410.122 124C417.855 130.267 421.722 139.667 421.722 152.2V200.8H433.922V220H418.922ZM374.722 204.8C380.855 204.8 385.922 203.4 389.922 200.6C394.055 197.667 396.122 193.733 396.122 188.8V175H378.522C364.522 175 357.522 179.4 357.522 188.2V192.2C357.522 196.333 359.055 199.467 362.122 201.6C365.189 203.733 369.389 204.8 374.722 204.8Z" fill="#EEEEEE"/>
<path d="M473.244 100.8C467.244 100.8 462.977 99.5333 460.444 97C458.044 94.4667 456.844 91.4 456.844 87.8V83C456.844 79.4 458.044 76.3333 460.444 73.8C462.977 71.2667 467.244 70 473.244 70C479.244 70 483.444 71.2667 485.844 73.8C488.377 76.3333 489.644 79.4 489.644 83V87.8C489.644 91.4 488.377 94.4667 485.844 97C483.444 99.5333 479.244 100.8 473.244 100.8ZM426.444 199.8H460.444V137H426.444V116.8H486.044V199.8H517.644V220H426.444V199.8Z" fill="#EEEEEE"/>
<path d="M507.166 199.8H539.966V92.2H507.166V72H565.566V199.8H598.566V220H507.166V199.8Z" fill="#EEEEEE"/>
<path d="M638.288 222.4C626.954 222.4 617.154 220.667 608.888 217.2C600.621 213.6 594.154 208.8 589.487 202.8L604.487 189.2C608.754 193.867 613.621 197.467 619.087 200C624.688 202.533 631.154 203.8 638.488 203.8C644.888 203.8 650.021 202.733 653.888 200.6C657.754 198.467 659.688 195.2 659.688 190.8C659.688 187.067 658.354 184.533 655.688 183.2C653.154 181.867 649.754 180.867 645.488 180.2L628.888 177.6C624.621 176.933 620.421 176 616.288 174.8C612.288 173.467 608.688 171.667 605.487 169.4C602.421 167.133 599.954 164.267 598.087 160.8C596.221 157.2 595.288 152.867 595.288 147.8C595.288 137 599.288 128.733 607.288 123C615.421 117.267 626.554 114.4 640.688 114.4C650.688 114.4 659.154 115.8 666.087 118.6C673.154 121.4 678.954 125.333 683.488 130.4L670.087 145.2C667.154 142 663.221 139.2 658.288 136.8C653.488 134.267 647.354 133 639.888 133C626.821 133 620.288 137.067 620.288 145.2C620.288 148.933 621.621 151.533 624.288 153C626.954 154.333 630.421 155.333 634.688 156L651.087 158.6C655.487 159.267 659.688 160.267 663.688 161.6C667.821 162.8 671.421 164.533 674.488 166.8C677.688 169.067 680.221 171.933 682.087 175.4C683.954 178.867 684.888 183.133 684.888 188.2C684.888 198.867 680.754 207.267 672.487 213.4C664.354 219.4 652.954 222.4 638.288 222.4Z" fill="#EEEEEE"/>
<path d="M724.609 222.4C716.743 222.4 709.676 221.133 703.409 218.6C697.276 216.067 692.009 212.467 687.609 207.8C683.343 203.133 680.009 197.467 677.609 190.8C675.343 184.133 674.209 176.667 674.209 168.4C674.209 160.133 675.343 152.667 677.609 146C680.009 139.333 683.343 133.667 687.609 129C692.009 124.333 697.276 120.733 703.409 118.2C709.676 115.667 716.743 114.4 724.609 114.4C732.343 114.4 739.343 115.667 745.609 118.2C751.876 120.733 757.143 124.333 761.409 129C765.809 133.667 769.143 139.333 771.409 146C773.809 152.667 775.009 160.133 775.009 168.4C775.009 176.667 773.809 184.133 771.409 190.8C769.143 197.467 765.809 203.133 761.409 207.8C757.143 212.467 751.876 216.067 745.609 218.6C739.343 221.133 732.343 222.4 724.609 222.4ZM724.609 202.8C731.943 202.8 737.743 200.6 742.009 196.2C746.276 191.667 748.409 185.067 748.409 176.4V160.4C748.409 151.733 746.276 145.2 742.009 140.8C737.743 136.267 731.943 134 724.609 134C717.276 134 711.476 136.267 707.209 140.8C702.943 145.2 700.809 151.733 700.809 160.4V176.4C700.809 185.067 702.943 191.667 707.209 196.2C711.476 200.6 717.276 202.8 724.609 202.8Z" fill="#EEEEEE"/>
<path d="M765.531 220V116.8H791.131V135H792.131C794.398 129.4 797.865 124.6 802.531 120.6C807.331 116.467 813.931 114.4 822.331 114.4C832.465 114.4 840.665 117.8 846.931 124.6C853.331 131.267 856.531 140.867 856.531 153.4V220H830.931V157C830.931 142.067 824.465 134.6 811.531 134.6C808.865 134.6 806.331 134.933 803.931 135.6C801.531 136.267 799.331 137.333 797.331 138.8C795.465 140.133 793.931 141.8 792.731 143.8C791.665 145.8 791.131 148.2 791.131 151V220H765.531Z" fill="#EEEEEE"/>
<path d="M896.453 222.2C889.52 222.2 884.586 220.733 881.653 217.8C878.72 214.867 877.253 211.267 877.253 207V201C877.253 196.733 878.72 193.133 881.653 190.2C884.586 187.267 889.52 185.8 896.453 185.8C903.386 185.8 908.32 187.267 911.253 190.2C914.186 193.133 915.653 196.733 915.653 201V207C915.653 211.267 914.186 214.867 911.253 217.8C908.32 220.733 903.386 222.2 896.453 222.2Z" fill="#EEEEEE"/>
<path d="M1002.97 201.8H1001.58C998.775 208.067 994.908 213.067 989.975 216.8C985.175 220.533 978.775 222.4 970.775 222.4C964.908 222.4 959.508 221.333 954.575 219.2C949.775 216.933 945.642 213.6 942.175 209.2C938.708 204.667 936.042 199 934.175 192.2C932.308 185.4 931.375 177.467 931.375 168.4C931.375 150.267 934.975 136.733 942.175 127.8C949.375 118.867 958.908 114.4 970.775 114.4C978.775 114.4 985.175 116.267 989.975 120C994.908 123.733 998.775 128.733 1001.58 135H1002.97V72H1028.58V220H1002.97V201.8ZM981.575 202C984.508 202 987.242 201.667 989.775 201C992.442 200.2 994.708 199.133 996.575 197.8C998.575 196.333 1000.11 194.533 1001.17 192.4C1002.38 190.133 1002.97 187.533 1002.97 184.6V152.2C1002.97 149.267 1002.38 146.733 1001.17 144.6C1000.11 142.333 998.575 140.533 996.575 139.2C994.708 137.733 992.442 136.667 989.775 136C987.242 135.2 984.508 134.8 981.575 134.8C974.108 134.8 968.308 137.067 964.175 141.6C960.175 146.133 958.175 152.333 958.175 160.2V176.6C958.175 184.467 960.175 190.667 964.175 195.2C968.308 199.733 974.108 202 981.575 202Z" fill="#EEEEEE"/>
<path d="M1070.7 222.4C1062.43 222.4 1055.1 221.133 1048.7 218.6C1042.3 216.067 1036.9 212.467 1032.5 207.8C1028.23 203.133 1024.96 197.533 1022.7 191C1020.43 184.333 1019.3 176.867 1019.3 168.6C1019.3 160.2 1020.43 152.667 1022.7 146C1025.1 139.333 1028.43 133.667 1032.7 129C1036.96 124.333 1042.1 120.733 1048.1 118.2C1054.23 115.667 1061.1 114.4 1068.7 114.4C1076.16 114.4 1082.9 115.667 1088.9 118.2C1094.9 120.6 1099.96 124.067 1104.1 128.6C1108.36 133.133 1111.63 138.6 1113.9 145C1116.16 151.4 1117.3 158.467 1117.3 166.2V174.6H1044.9V177.2C1044.9 184.667 1047.23 190.733 1051.9 195.4C1056.56 199.933 1063.1 202.2 1071.5 202.2C1077.9 202.2 1083.36 200.933 1087.9 198.4C1092.56 195.733 1096.43 192.267 1099.5 188L1114.1 202.6C1110.36 208.067 1104.9 212.733 1097.7 216.6C1090.63 220.467 1081.63 222.4 1070.7 222.4ZM1068.9 133.2C1061.7 133.2 1055.9 135.467 1051.5 140C1047.1 144.533 1044.9 150.533 1044.9 158V159.4H1091.7V157.6C1091.7 150.133 1089.63 144.2 1085.5 139.8C1081.5 135.4 1075.96 133.2 1068.9 133.2Z" fill="#EEEEEE"/>
<path d="M1138.82 220L1101.82 116.8H1128.62L1142.42 160.6L1154.02 198.6H1155.42L1167.02 160.6L1180.82 116.8H1206.62L1169.62 220H1138.82Z" fill="#EEEEEE"/>
<path d="M72 40V0H152L192 40H72ZM32 288V248H152V288H32ZM32 248V0H72V248H32ZM152 288V40H192V248L152 288Z" fill="#00ADB5"/>
<path d="M24 288L0 248H192L152 288H24ZM0 248V0H40V248H0Z" fill="#009BA3"/>
</svg>
