<svg width="33" height="32" viewBox="0 0 33 32" fill="none" xmlns="http://www.w3.org/2000/svg">
<g clip-path="url(#clip0_1367_819)">
<mask id="mask0_1367_819" style="mask-type:luminance" maskUnits="userSpaceOnUse" x="0" y="0" width="33" height="32">
<path d="M0.287109 0H32.2871V32H0.287109V0Z" fill="white"/>
</mask>
<g mask="url(#mask0_1367_819)">
<path d="M15.2391 0.00816667C15.1698 0.0148333 14.9511 0.0375 14.7538 0.0521667C10.2098 0.462833 5.95378 2.91483 3.25511 6.68417C1.76484 8.75313 0.79607 11.1513 0.431109 13.6748C0.303109 14.5548 0.287109 14.8135 0.287109 16.0055C0.287109 17.1975 0.303109 17.4575 0.431109 18.3362C1.30044 24.3455 5.57778 29.3935 11.3764 31.2642C12.4151 31.5988 13.5098 31.8268 14.7538 31.9655C15.2391 32.0188 17.3351 32.0188 17.8204 31.9655C19.9684 31.7268 21.7898 31.1948 23.5844 30.2788C23.8604 30.1388 23.9138 30.1002 23.8764 30.0695C22.9986 28.9118 22.1297 27.7473 21.2698 26.5762L18.7111 23.1188L15.5058 18.3735C14.4393 16.7863 13.3628 15.2058 12.2764 13.6322C12.2644 13.6282 12.2524 15.7362 12.2458 18.3122C12.2364 22.8188 12.2324 23.0002 12.1764 23.1068C12.1218 23.2313 12.0244 23.3321 11.9018 23.3908C11.8018 23.4415 11.7151 23.4508 11.2418 23.4508H10.7004L10.5564 23.3602C10.4673 23.3039 10.395 23.2247 10.3471 23.1308L10.2804 22.9908L10.2871 16.7188L10.2964 10.4442L10.3938 10.3215C10.4593 10.2448 10.5378 10.1803 10.6258 10.1308C10.7538 10.0682 10.8031 10.0628 11.3458 10.0628C11.9831 10.0628 12.0898 10.0868 12.2551 10.2682C12.3018 10.3188 14.0378 12.9348 16.1151 16.0842L22.4271 25.6468L24.9604 29.4842L25.0898 29.4002C26.309 28.5896 27.4143 27.6197 28.3764 26.5162C30.3927 24.2086 31.7005 21.3684 32.1431 18.3362C32.2711 17.4562 32.2871 17.1975 32.2871 16.0055C32.2871 14.8135 32.2711 14.5548 32.1431 13.6748C31.2738 7.66683 26.9964 2.6175 21.1978 0.746833C20.114 0.402259 18.9981 0.168616 17.8671 0.0495C17.5658 0.0175 15.4991 -0.0171667 15.2404 0.0095L15.2391 0.00816667ZM21.7898 9.68817C21.8641 9.72561 21.9303 9.77741 21.9846 9.84057C22.0388 9.90373 22.08 9.97701 22.1058 10.0562C22.1298 10.1362 22.1364 11.8762 22.1298 15.7962L22.1204 21.4202L21.1298 19.9002L20.1351 18.3802V14.2922C20.1351 11.6482 20.1471 10.1628 20.1658 10.0908C20.188 10.0076 20.2268 9.92964 20.28 9.8618C20.3332 9.79396 20.3995 9.73762 20.4751 9.69617C20.6044 9.6295 20.6511 9.62417 21.1418 9.62417C21.6044 9.62417 21.6858 9.63217 21.7898 9.68817Z" fill="#69778C"/>
</g>
</g>
<defs>
<clipPath id="clip0_1367_819">
<rect width="32" height="32" fill="white" transform="translate(0.287109)"/>
</clipPath>
</defs>
</svg>
