<svg width="33" height="32" viewBox="0 0 33 32" fill="none" xmlns="http://www.w3.org/2000/svg">
<path d="M16.2871 30.0001C15.9093 30.0002 15.5382 29.9009 15.2111 29.7121L11.7871 27.6851C11.2761 27.3991 11.5251 27.2981 11.6941 27.2391C12.2376 27.0712 12.7579 26.836 13.2431 26.5391C13.2837 26.5203 13.3284 26.5122 13.373 26.5155C13.4177 26.5188 13.4607 26.5335 13.4981 26.5581L16.1291 28.1211C16.1781 28.147 16.2327 28.1606 16.2881 28.1606C16.3435 28.1606 16.3981 28.147 16.4471 28.1211L26.7071 22.1991C26.7551 22.1703 26.7948 22.1296 26.8223 22.0809C26.8498 22.0321 26.8642 21.9771 26.8641 21.9211V10.0751C26.8641 10.0182 26.8495 9.96234 26.8216 9.91277C26.7938 9.8632 26.7537 9.82164 26.7051 9.7921L16.4451 3.8751C16.3967 3.84785 16.3421 3.83354 16.2866 3.83354C16.231 3.83354 16.1765 3.84785 16.1281 3.8751L5.87408 9.7941C5.82517 9.82303 5.78455 9.86409 5.75617 9.91332C5.72779 9.96255 5.7126 10.0183 5.71208 10.0751V21.9161C5.71222 21.9719 5.7272 22.0267 5.75549 22.0749C5.78378 22.123 5.82436 22.1628 5.87308 22.1901L8.68708 23.8141C10.2121 24.5761 11.1461 23.6781 11.1461 22.7761V11.0851C11.1461 11.0055 11.1777 10.9292 11.2339 10.873C11.2902 10.8167 11.3665 10.7851 11.4461 10.7851H12.7461C12.8256 10.7851 12.9019 10.8167 12.9582 10.873C13.0145 10.9292 13.0461 11.0055 13.0461 11.0851V22.7771C13.0461 24.8121 11.9381 25.9771 10.0081 25.9771C9.17546 25.9916 8.35589 25.7689 7.64508 25.3351L4.94808 23.7881C4.62067 23.5974 4.34899 23.3242 4.16019 22.9957C3.97138 22.6672 3.87203 22.295 3.87208 21.9161V10.0751C3.8711 9.69563 3.97003 9.32259 4.1589 8.99346C4.34778 8.66433 4.61995 8.39071 4.94808 8.2001L15.2091 2.2761C15.5396 2.09527 15.9103 2.00049 16.2871 2.00049C16.6638 2.00049 17.0345 2.09527 17.3651 2.2761L27.6251 8.2001C27.9524 8.39039 28.2242 8.66322 28.4132 8.99135C28.6022 9.31948 28.7018 9.69144 28.7021 10.0701V21.9161C28.7015 22.295 28.6018 22.6671 28.4129 22.9955C28.2239 23.3239 27.9523 23.5972 27.6251 23.7881L17.3651 29.7121C17.0373 29.9012 16.6655 30.0005 16.2871 30.0001Z" fill="#69778C"/>
<path d="M14.3411 17.9531C14.3411 17.8736 14.3727 17.7972 14.4289 17.741C14.4852 17.6847 14.5615 17.6531 14.6411 17.6531H15.9681C16.039 17.6533 16.1075 17.6787 16.1615 17.7246C16.2155 17.7706 16.2515 17.8342 16.2631 17.9041C16.4631 19.2551 17.0631 19.9361 19.7761 19.9361C21.9371 19.9361 22.8581 19.4471 22.8581 18.3001C22.8581 17.6391 22.5971 17.1481 19.2381 16.8191C16.4301 16.5411 14.6941 15.9191 14.6941 13.6751C14.6941 11.6051 16.4391 10.3701 19.3641 10.3701C22.6511 10.3701 24.2781 11.5111 24.4841 13.9591C24.4872 14 24.4819 14.0411 24.4686 14.0798C24.4553 14.1186 24.4341 14.1542 24.4065 14.1845C24.3788 14.2147 24.3453 14.239 24.3079 14.2558C24.2705 14.2726 24.2301 14.2816 24.1891 14.2821H22.8531C22.786 14.2812 22.7213 14.2578 22.6691 14.2158C22.6169 14.1737 22.5803 14.1154 22.5651 14.0501C22.2461 12.6291 21.4651 12.1751 19.3651 12.1751C17.0051 12.1751 16.7311 12.9971 16.7311 13.6131C16.7311 14.3591 17.0551 14.5771 20.2411 14.9981C23.3941 15.4151 24.8921 16.0051 24.8921 18.2211C24.8921 20.4571 23.0281 21.7371 19.7771 21.7371C15.2821 21.7431 14.3411 19.6821 14.3411 17.9531Z" fill="#69778C"/>
</svg>
