<svg width="27" height="32" viewBox="0 0 27 32" fill="none" xmlns="http://www.w3.org/2000/svg">
<g clip-path="url(#clip0_1367_800)">
<path d="M26.5388 24.3117L15.5645 1.00643C15.4282 0.719669 15.2168 0.475111 14.9528 0.298632C14.6889 0.122152 14.3821 0.0203152 14.065 0.00389771C13.7473 -0.0173933 13.4298 0.0488348 13.1471 0.19538C12.8644 0.341924 12.6273 0.563176 12.4616 0.835072L0.558915 20.1134C0.37793 20.4045 0.283676 20.7412 0.287205 21.0839C0.290734 21.4267 0.391898 21.7613 0.578838 22.0486L6.39809 31.0603C6.61824 31.3986 6.94187 31.6567 7.32068 31.796C7.69949 31.9353 8.1132 31.9484 8.50008 31.8334L25.3877 26.8381C25.642 26.7637 25.8774 26.6357 26.0779 26.4625C26.2784 26.2894 26.4394 26.0752 26.55 25.8345C26.6591 25.595 26.7147 25.3347 26.7129 25.0715C26.7111 24.8084 26.6519 24.5488 26.5396 24.3109L26.5388 24.3117ZM24.0818 25.3113L9.75169 29.5487C9.31453 29.6787 8.89492 29.2998 8.98586 28.8586L14.1057 4.34413C14.2013 3.8855 14.8347 3.81283 15.035 4.23729L24.5126 24.3635C24.5545 24.4532 24.5764 24.5509 24.5769 24.6499C24.5774 24.7489 24.5564 24.8468 24.5154 24.9369C24.4744 25.0269 24.4143 25.1071 24.3393 25.1717C24.2643 25.2363 24.1762 25.2839 24.0811 25.3111L24.0818 25.3113Z" fill="#69778C"/>
</g>
<defs>
<clipPath id="clip0_1367_800">
<rect width="26.4258" height="32" fill="white" transform="translate(0.287109)"/>
</clipPath>
</defs>
</svg>
