<svg width="33" height="32" viewBox="0 0 33 32" fill="none" xmlns="http://www.w3.org/2000/svg">
<g clip-path="url(#clip0_1367_784)">
<path d="M26.4856 11.2103C26.1457 11.0937 25.8029 10.9856 25.4576 10.8863C25.5156 10.6492 25.569 10.4151 25.6164 10.185C26.3946 6.40713 25.8859 3.36361 24.1481 2.36153C22.4819 1.40088 19.757 2.40258 17.0051 4.7976C16.7339 5.03406 16.4687 5.27734 16.2097 5.5272C16.0364 5.36105 15.86 5.19813 15.6806 5.03851C12.7964 2.47769 9.90547 1.39838 8.16956 2.40333C6.50489 3.36698 6.01196 6.2281 6.71261 9.80847C6.78232 10.1631 6.86103 10.5158 6.94866 10.8664C6.53945 10.9827 6.14458 11.1065 5.76668 11.2382C2.38518 12.4172 0.225708 14.2648 0.225708 16.1812C0.225708 18.1605 2.544 20.1458 6.06598 21.3497C6.35151 21.4468 6.63942 21.5369 6.92945 21.6198C6.83525 21.9974 6.75163 22.3775 6.67868 22.7598C6.01071 26.2781 6.53233 29.0716 8.19252 30.0291C9.90722 31.0179 12.7852 30.0016 15.5874 27.552C15.8147 27.3528 16.0369 27.148 16.2539 26.9378C16.5343 27.2083 16.8222 27.471 17.1172 27.7255C19.8318 30.0613 22.5126 31.0045 24.1712 30.0443C25.8843 29.0526 26.4411 26.0516 25.7182 22.4005C25.6613 22.1145 25.5974 21.8299 25.5267 21.5469C25.7288 21.487 25.9272 21.4254 26.1206 21.3613C29.782 20.1482 32.1643 18.187 32.1643 16.1812C32.1643 14.2578 29.9351 12.3977 26.4856 11.2103ZM25.6915 20.0662C25.5168 20.124 25.3377 20.1798 25.155 20.234C24.7508 18.9544 24.2054 17.5937 23.5378 16.1878C24.1748 14.8155 24.6993 13.4722 25.0922 12.2009C25.4189 12.2954 25.7359 12.3951 26.0416 12.5003C28.9971 13.5178 30.7999 15.0221 30.7999 16.1812C30.7999 17.4158 28.8529 19.0186 25.6915 20.0662ZM24.3798 22.6655C24.6994 24.2799 24.7449 25.7396 24.5332 26.8808C24.3431 27.9062 23.9606 28.5897 23.4875 28.8636C22.481 29.4462 20.3286 28.6889 18.0071 26.6913C17.7327 26.4546 17.4649 26.2104 17.2041 25.9589C18.1041 24.9747 19.0035 23.8305 19.8813 22.5597C21.4253 22.4227 22.884 22.1986 24.2069 21.8929C24.2706 22.149 24.3282 22.4066 24.3798 22.6655ZM11.1143 28.7629C10.1309 29.1101 9.34767 29.1201 8.87421 28.8471C7.86677 28.2661 7.44795 26.023 8.01922 23.0143C8.08713 22.6588 8.16489 22.3052 8.2524 21.954C9.56064 22.2434 11.0087 22.4515 12.5564 22.577C13.4402 23.8205 14.3655 24.9635 15.2981 25.9643C15.0999 26.1561 14.897 26.3429 14.6897 26.5247C13.4504 27.6079 12.2087 28.3764 11.1143 28.7629ZM6.50738 20.0586C4.95 19.5263 3.66385 18.8345 2.78229 18.0796C1.99007 17.4012 1.59021 16.7277 1.59021 16.1812C1.59021 15.0182 3.324 13.5348 6.21582 12.5266C6.56677 12.4044 6.93406 12.2889 7.3152 12.1807C7.71494 13.4807 8.23918 14.8399 8.87184 16.2144C8.23094 17.6092 7.69922 18.9902 7.29562 20.3055C7.03089 20.2297 6.76806 20.1474 6.50738 20.0586ZM8.05166 9.54635C7.45144 6.47887 7.85005 4.16494 8.85325 3.58418C9.92169 2.96562 12.2844 3.84755 14.7747 6.0588C14.9371 6.20332 15.0969 6.35077 15.2539 6.50107C14.326 7.49753 13.4091 8.63198 12.5332 9.8681C11.0311 10.0073 9.5932 10.2309 8.27124 10.5305C8.18979 10.2044 8.11658 9.87613 8.05166 9.54635ZM21.8286 12.9483C21.5163 12.409 21.1925 11.8764 20.8573 11.351C21.8763 11.4799 22.8527 11.6509 23.7696 11.86C23.4943 12.7423 23.1513 13.6647 22.7474 14.6104C22.4522 14.0503 22.1459 13.4962 21.8286 12.9483ZM16.2104 7.4762C16.8396 8.15801 17.4699 8.91918 18.0899 9.74509C16.8323 9.6857 15.5726 9.68545 14.315 9.74434C14.9356 8.92604 15.5712 8.16587 16.2104 7.4762ZM10.5561 12.9577C10.2427 13.5011 9.94211 14.0518 9.65446 14.6092C9.25722 13.6669 8.91725 12.7403 8.63966 11.8456C9.55091 11.6417 10.5227 11.475 11.5352 11.3485C11.1963 11.8771 10.8698 12.4137 10.5561 12.9577ZM11.5643 21.111C10.5182 20.9942 9.53182 20.8361 8.62082 20.6378C8.90278 19.727 9.25023 18.7807 9.65608 17.8182C9.94488 18.3761 10.2468 18.9271 10.5615 19.4708C10.8851 20.0297 11.2202 20.5771 11.5643 21.111ZM16.248 24.9823C15.6013 24.2846 14.9563 23.5127 14.3264 22.6826C14.9379 22.7065 15.5614 22.7188 16.195 22.7188C16.846 22.7188 17.4895 22.7042 18.1229 22.676C17.501 23.5211 16.8731 24.2941 16.248 24.9823ZM22.7603 17.769C23.1872 18.7422 23.547 19.6835 23.8327 20.5786C22.9067 20.79 21.9069 20.9602 20.8534 21.0865C21.191 20.5514 21.5179 20.0096 21.8339 19.4614C22.1552 18.9042 22.4641 18.34 22.7603 17.769ZM20.6521 18.7797C20.1683 19.6202 19.6573 20.4446 19.1199 21.2518C18.1465 21.3208 17.1709 21.355 16.195 21.3545C15.201 21.3545 14.2343 21.3236 13.3033 21.2632C12.7519 20.4578 12.2312 19.6319 11.7422 18.7872C11.2555 17.947 10.8011 17.0885 10.3796 16.2138C10.8 15.3388 11.2532 14.48 11.7382 13.6391L11.7381 13.6392C12.2229 12.7981 12.7395 11.9757 13.2867 11.1738C14.2365 11.102 15.2105 11.0646 16.1949 11.0646C17.1837 11.0646 18.1591 11.1024 19.1087 11.1747C19.6504 11.9754 20.1637 12.795 20.6476 13.6319C21.1342 14.4709 21.5934 15.3255 22.0244 16.1944C21.5978 17.0722 21.1401 17.9345 20.6521 18.7797ZM23.4667 3.54351C24.5361 4.16032 24.952 6.64767 24.2801 9.90952C24.2372 10.1176 24.189 10.3296 24.1366 10.5446C22.8114 10.2386 21.3726 10.0112 19.8661 9.86985C18.9885 8.62013 18.0791 7.48394 17.1663 6.50033C17.4055 6.26971 17.6504 6.04507 17.9009 5.82662C20.2588 3.77469 22.4626 2.9645 23.4667 3.54351ZM16.195 13.3292C17.7701 13.3292 19.047 14.6061 19.047 16.1812C19.047 17.7563 17.7701 19.0332 16.195 19.0332C14.6199 19.0332 13.343 17.7563 13.343 16.1812C13.343 14.6061 14.6199 13.3292 16.195 13.3292Z" fill="#69778C"/>
</g>
<defs>
<clipPath id="clip0_1367_784">
<rect width="32" height="32" fill="white" transform="translate(0.287109)"/>
</clipPath>
</defs>
</svg>
