<svg width="33" height="32" viewBox="0 0 33 32" fill="none" xmlns="http://www.w3.org/2000/svg">
<g clip-path="url(#clip0_1367_788)">
<path d="M16 6C11.728 6 9.072 8.128 8 12.4C9.6 10.272 11.472 9.472 13.6 10C14.816 10.304 15.696 11.184 16.656 12.16C18.224 13.76 20 15.6 24 15.6C28.272 15.6 30.928 13.472 32 9.2C30.4 11.328 28.528 12.128 26.4 11.6C25.184 11.296 24.32 10.416 23.344 9.44C21.776 7.84 20 6 16 6ZM8 15.6C3.728 15.6 1.072 17.728 0 22C1.6 19.872 3.472 19.072 5.6 19.6C6.816 19.904 7.68 20.784 8.656 21.76C10.224 23.36 12 25.2 16 25.2C20.272 25.2 22.928 23.072 24 18.8C22.4 20.928 20.528 21.728 18.4 21.2C17.184 20.896 16.32 20.016 15.344 19.04C13.776 17.44 12 15.6 8 15.6Z" fill="#69778C"/>
</g>
<defs>
<clipPath id="clip0_1367_788">
<rect width="32" height="32" fill="white" transform="translate(0.287109)"/>
</clipPath>
</defs>
</svg>
