<svg width="33" height="32" viewBox="0 0 33 32" fill="none" xmlns="http://www.w3.org/2000/svg">
<g clip-path="url(#clip0_1367_790)">
<path fill-rule="evenodd" clip-rule="evenodd" d="M29.7871 0H2.78711C1.40636 0 0.287109 1.11925 0.287109 2.5V29.5C0.287109 30.8808 1.40636 32 2.78711 32H29.7871C31.1679 32 32.2871 30.8808 32.2871 29.5V2.5C32.2871 1.11925 31.1679 0 29.7871 0ZM19.1019 28.5119V25.0594C19.7281 25.5845 20.4084 25.9782 21.1427 26.2407C21.877 26.5034 22.6184 26.6346 23.367 26.6346C23.8061 26.6346 24.1895 26.595 24.517 26.5159C24.8445 26.4368 25.1181 26.3271 25.3376 26.1869C25.5571 26.0466 25.721 25.8811 25.8289 25.6906C25.9364 25.5017 25.9923 25.2877 25.9909 25.0702C25.9909 24.7681 25.9045 24.4984 25.7317 24.261C25.559 24.0236 25.3232 23.8042 25.0245 23.6029C24.7257 23.4015 24.3712 23.2074 23.9609 23.0204C23.522 22.821 23.0792 22.6303 22.6327 22.4485C21.4234 21.945 20.5219 21.33 19.928 20.6036C19.334 19.8771 19.0371 18.9996 19.0371 17.9711C19.0371 17.1655 19.1991 16.4732 19.523 15.8942C19.847 15.3153 20.2879 14.8388 20.8457 14.4646C21.4036 14.0906 22.0497 13.8155 22.784 13.6394C23.5182 13.4631 24.2956 13.375 25.1162 13.375C25.9225 13.375 26.637 13.4235 27.2596 13.5206C27.8822 13.6178 28.4564 13.767 28.9819 13.9684V17.1943C28.7147 17.01 28.4309 16.8511 28.1342 16.7196C27.8282 16.5829 27.5124 16.4693 27.1895 16.3797C26.8655 16.2897 26.5434 16.2232 26.223 16.1801C25.9027 16.137 25.5986 16.1154 25.3106 16.1154C24.9147 16.1154 24.5547 16.1531 24.2309 16.2286C23.9069 16.3042 23.6334 16.4103 23.4102 16.547C23.1871 16.6836 23.0142 16.8472 22.8919 17.0379C22.7695 17.2285 22.7084 17.4424 22.7084 17.6798C22.7084 17.9388 22.7767 18.1706 22.9135 18.3756C23.0502 18.5806 23.2446 18.7749 23.4966 18.9583C23.7485 19.1418 24.0545 19.3215 24.4144 19.4977C24.7744 19.674 25.181 19.8555 25.6345 20.0426C26.2536 20.3015 26.8097 20.5766 27.3029 20.8679C27.7959 21.1592 28.2189 21.4883 28.5715 21.8551C28.9211 22.217 29.1963 22.6441 29.3814 23.112C29.5685 23.5831 29.6621 24.1316 29.6621 24.7574C29.6621 25.6205 29.4984 26.3451 29.1709 26.9312C28.8432 27.5175 28.3987 27.9922 27.8372 28.3555C27.2759 28.7186 26.6225 28.9794 25.8775 29.1376C25.1325 29.2959 24.346 29.375 23.5182 29.375C22.6687 29.375 21.8607 29.3031 21.0941 29.1593C20.3275 29.0154 19.6634 28.7996 19.1019 28.5119ZM17.7871 16.4678H13.3474V29.125H9.83023V16.4678H5.41211V13.625H17.7871V16.4678Z" fill="#69778C"/>
</g>
<defs>
<clipPath id="clip0_1367_790">
<rect width="32" height="32" fill="white" transform="translate(0.287109)"/>
</clipPath>
</defs>
</svg>
